<svg width="38" height="37" viewBox="0 0 38 37" fill="none" xmlns="http://www.w3.org/2000/svg">
<g clip-path="url(#clip0_915_168)">
<path d="M18.5095 0C28.7273 0 37.0095 8.28222 37.0095 18.5C37.0095 28.7178 28.7273 37 18.5095 37C8.29174 37 0.00952148 28.7178 0.00952148 18.5C0.00952148 8.28222 8.29174 0 18.5095 0ZM15.9588 8.11687C14.3979 7.98969 13.1919 8.38281 12.5676 9.27891L8.27208 15.4151C7.64771 16.3101 7.66852 17.6108 8.2929 19.0804C9.15662 21.105 11.1535 23.5019 13.8996 25.5057C16.6352 27.5187 19.4958 28.6912 21.6487 28.882C23.1981 29.0103 24.4156 28.616 25.04 27.7211L29.3251 21.5849C29.9495 20.6899 29.9286 19.3892 29.3043 17.9196C28.451 15.895 26.4437 13.4981 23.708 11.4839C20.9619 9.48125 18.1118 8.29841 15.9588 8.11687ZM24.9637 22.5099C25.7789 22.6544 26.5027 22.681 27.097 22.5839C27.1362 22.58 27.1755 22.5912 27.2067 22.6152C27.238 22.6392 27.2589 22.6742 27.2652 22.7131C27.2716 22.7521 27.2628 22.7919 27.2408 22.8246C27.2188 22.8573 27.1851 22.8804 27.1467 22.8891C26.5142 22.9932 25.7569 22.9643 24.9105 22.8151C24.8705 22.8076 24.835 22.7846 24.8118 22.7511C24.7886 22.7177 24.7795 22.6764 24.7865 22.6362C24.7934 22.5961 24.816 22.5603 24.8491 22.5367C24.8823 22.513 24.9235 22.5034 24.9637 22.5099ZM23.7762 22.2335C23.9763 22.2902 24.1728 22.3411 24.3659 22.3862C24.4046 22.3966 24.4378 22.4216 24.4584 22.456C24.479 22.4904 24.4855 22.5314 24.4765 22.5704C24.4675 22.6095 24.4438 22.6436 24.4102 22.6655C24.3767 22.6874 24.3359 22.6954 24.2966 22.6879C24.0977 22.6417 23.8965 22.5897 23.693 22.5318C23.6546 22.5198 23.6225 22.4933 23.6033 22.4579C23.5841 22.4226 23.5794 22.3811 23.5902 22.3424C23.601 22.3037 23.6265 22.2706 23.6612 22.2503C23.6959 22.23 23.7372 22.224 23.7762 22.2335ZM13.1619 9.71597C13.6614 9.00141 14.65 8.76784 15.8976 8.87422C17.9464 9.04419 20.6613 10.1842 23.2721 12.1025C25.8933 14.0195 27.8185 16.2892 28.6394 18.2179C29.1285 19.3892 29.2326 20.4333 28.7331 21.1374L28.7019 21.1906C28.1931 21.8612 27.2253 22.0855 25.9974 21.9884C23.9485 21.8184 21.2336 20.6784 18.6228 18.7613C16.012 16.8431 14.088 14.5734 13.2659 12.6343C12.7768 11.4839 12.6728 10.4722 13.1411 9.75759L13.1619 9.71597ZM12.3016 12.5465C12.3826 12.5222 12.4693 12.5696 12.4924 12.6505C13.0092 14.4219 14.3586 16.1366 16.4896 18.0826L16.7289 18.3C16.8515 18.4098 16.9752 18.5197 17.1012 18.6295C17.1167 18.6429 17.1294 18.6592 17.1386 18.6775C17.1477 18.6958 17.1531 18.7158 17.1545 18.7362C17.1559 18.7566 17.1533 18.7771 17.1467 18.7965C17.1401 18.8159 17.1298 18.8338 17.1162 18.8492C17.1029 18.8644 17.0867 18.8768 17.0685 18.8858C17.0504 18.8947 17.0306 18.9 17.0104 18.9012C16.9902 18.9025 16.97 18.8998 16.9508 18.8933C16.9317 18.8867 16.914 18.8765 16.8989 18.8631C16.7335 18.7179 16.5693 18.5715 16.4063 18.4237L16.1693 18.2086C14.0649 16.2684 12.7236 14.5468 12.1976 12.7384C12.1861 12.6992 12.1905 12.6569 12.21 12.621C12.2295 12.585 12.2624 12.5582 12.3016 12.5465ZM18.3731 12.2192C17.7903 12.1765 17.3232 12.2724 17.0943 12.6031C16.8653 12.9327 16.9278 13.4125 17.1567 13.9559C17.5614 14.9249 18.5292 16.0545 19.8392 17.0142C21.1504 17.9727 22.5032 18.5474 23.5323 18.633C24.1046 18.6862 24.5729 18.5902 24.8018 18.2607C25.0412 17.93 24.9787 17.4513 24.7394 16.9078C24.3336 15.9366 23.3658 14.7977 22.0557 13.8392C20.755 12.8795 19.3929 12.3152 18.3731 12.2192ZM12.1328 11.3197C12.153 11.3189 12.1732 11.3221 12.1921 11.3292C12.2111 11.3362 12.2284 11.3469 12.2433 11.3606C12.2581 11.3744 12.2701 11.3909 12.2785 11.4093C12.2869 11.4276 12.2916 11.4475 12.2924 11.4677C12.3005 11.6643 12.3224 11.8631 12.356 12.0632C12.3602 12.0834 12.3603 12.1042 12.3562 12.1245C12.3522 12.1447 12.3441 12.164 12.3325 12.181C12.3209 12.1981 12.306 12.2127 12.2886 12.2238C12.2712 12.235 12.2518 12.2426 12.2314 12.246C12.2111 12.2495 12.1902 12.2489 12.1701 12.2442C12.15 12.2394 12.1311 12.2307 12.1145 12.2185C12.0978 12.2063 12.0838 12.1908 12.0732 12.1731C12.0627 12.1553 12.0558 12.1356 12.053 12.1152C12.0167 11.9053 11.9939 11.6932 11.9848 11.4804C11.9839 11.4601 11.987 11.4397 11.9939 11.4206C12.0008 11.4014 12.0115 11.3838 12.0252 11.3688C12.039 11.3537 12.0556 11.3416 12.074 11.3329C12.0925 11.3243 12.1124 11.3194 12.1328 11.3185V11.3197Z" fill="white"/>
</g>
<defs>
<clipPath id="clip0_915_168">
<rect width="37" height="37" fill="white" transform="translate(0.00952148)"/>
</clipPath>
</defs>
</svg>
