<svg width="37" height="38" viewBox="0 0 37 38" fill="none" xmlns="http://www.w3.org/2000/svg">
<path d="M23.0323 17.3468C22.6959 16.3455 22.1825 15.9871 21.5888 15.9871C20.865 15.9871 20.0209 16.5183 19.2272 17.0687C18.7549 17.3971 16.9263 19.4164 15.9291 19.4164C15.8148 19.4195 15.7025 19.3863 15.6082 19.3216C14.6347 18.6325 15.8545 15.6298 15.8545 14.1897C15.8545 12.7959 15.6013 12.2634 15.2134 12.2634C14.141 12.2634 12.0401 16.3466 11.4545 17.5248C11.2891 17.8573 11.0585 17.9885 10.7908 17.9885C9.85482 17.9885 8.46272 16.3784 7.82333 16.1316C7.72794 16.0929 7.62622 16.0721 7.52329 16.0703C6.45493 16.0703 6.47806 18.7279 6.49424 19.4332C7.07814 19.2736 7.62561 19.1754 8.10429 19.1754C9.31081 19.1754 10.078 19.8003 9.87794 21.6347C9.83285 22.0468 9.57212 23.3603 9.99877 23.65C10.0673 23.6945 10.1478 23.7169 10.2294 23.7141C10.7214 23.7141 11.5007 23.1077 11.7903 22.9227C12.18 22.6729 12.5887 22.4903 12.9344 22.4903C13.3507 22.4903 13.6756 22.7545 13.7686 23.4858C13.8241 23.9188 13.612 25.5664 14.0363 25.8294C14.0986 25.8669 14.17 25.8864 14.2427 25.8855C15.026 25.8855 16.3632 23.928 16.9685 23.7037C17.2527 23.5985 17.5534 23.545 17.8565 23.5459C18.6618 23.5459 19.4278 23.9014 20.2111 24.2021C20.343 24.2529 20.4505 24.2749 20.5378 24.2749C21.0113 24.2749 20.8737 23.6176 20.4684 23.1973C19.8782 22.5822 18.9416 22.8522 18.2849 22.4116C17.4507 21.852 18.6121 20.7276 19.063 20.394C19.6012 19.9951 20.7945 19.354 21.7466 19.354C22.1877 19.354 22.5768 19.4916 22.8242 19.8535C23.2919 20.5374 22.5138 21.4011 22.7103 22.1688C22.793 22.4874 22.993 22.5972 23.2301 22.5972C23.7347 22.5972 24.4036 22.0989 24.4499 22.0515C24.7575 21.7319 25.0885 21.4356 25.4402 21.1652C23.6827 20.7762 23.5336 18.8418 23.0323 17.3468Z" fill="white"/>
<path d="M8.622 15.9061C8.622 15.9061 10.1419 17.2468 10.7911 17.2468C10.9154 17.2468 11.0085 17.1976 11.0518 17.0785C11.986 14.5204 13.9615 11.5969 15.2512 11.5969C15.8137 11.5969 16.2456 12.1536 16.4028 13.5411C16.6063 15.3373 15.364 18.0596 15.9612 18.6799C15.9742 18.6931 15.9898 18.7033 16.007 18.7101C16.0242 18.7169 16.0427 18.72 16.0612 18.7192C16.7324 18.7192 19.3842 15.3234 21.6538 15.3234C21.8285 15.3229 22.0025 15.3445 22.1718 15.3875C24.2166 15.9119 23.3304 19.3985 24.9901 20.3946C25.265 20.562 25.58 20.6517 25.9018 20.6542C26.5135 20.6542 27.0719 20.3056 27.2055 19.5847C27.5425 17.7648 21.7625 14.2371 24.8895 14.2371C25.3382 14.2371 25.97 14.3094 26.8291 14.4701C27.3407 10.9644 27.1621 9.99259 26.7042 9.99259C26.1822 9.99259 25.2965 11.2546 24.6519 11.472C24.6333 11.4782 24.6138 11.4816 24.5941 11.4818C24.2259 11.4818 24.2386 10.1556 23.6084 10.1556C23.2015 10.1556 22.5268 10.7089 21.3093 12.5276C20.6815 13.4659 20.2114 13.837 19.8403 13.837C18.4285 13.837 18.4684 8.43689 16.7746 8.43689C16.4323 8.43689 16.0195 8.65715 15.5096 9.18612C14.7269 9.99895 13.9961 10.2869 13.3122 10.2869C11.6467 10.2869 10.2667 8.57621 9.13537 8.57621C8.68906 8.57621 8.28034 8.84273 7.90919 9.58734C7.14087 11.1315 9.74239 11.0517 8.622 15.9061ZM10.6124 16.601C10.3084 16.4646 9.7684 16.0992 9.26197 15.683C9.35563 15.2245 9.41344 14.8129 9.44697 14.4337C9.58976 14.1943 9.76551 13.9585 9.97999 13.7399C10.8535 12.8491 11.9727 12.5675 12.5214 13.082C11.7392 14.1602 11.0507 15.48 10.6124 16.601ZM23.4529 14.3036C23.1673 14.9794 23.7229 15.6928 24.5733 16.6253C24.514 16.6901 24.445 16.7453 24.3687 16.7889C24.2877 16.8338 24.1997 16.8649 24.1085 16.8808C23.838 15.9674 23.3841 15.0904 22.3129 14.8158C22.1555 14.7774 21.9948 14.7536 21.8331 14.7447C21.5428 13.8012 21.6775 12.915 22.2273 12.6086C22.8332 12.2692 23.7165 12.7537 24.3195 13.6937C23.9836 13.7578 23.6183 13.9128 23.4529 14.3036Z" fill="white"/>
<path d="M27.7533 19.5974C27.6267 20.4247 28.8291 20.5727 28.2545 21.9277C27.9597 22.6209 25.4628 24.2188 25.6466 24.5686C25.9189 25.0802 26.2461 25.2791 26.5774 25.2791C27.233 25.2791 27.9007 24.5009 28.1695 23.8269C28.5216 22.9452 28.6124 20.631 29.4703 20.2021C29.6154 20.1287 29.7588 20.0963 29.9004 20.0963C30.7473 20.0963 31.5388 21.2415 32.3019 21.3965C32.488 20.5674 32.3551 19.7072 32.5447 18.8736C29.3234 18.8331 34.3345 14.4308 31.4711 12.6346C31.3168 12.538 31.1873 12.4947 31.074 12.4952C30.1727 12.4952 30.3825 15.2552 28.1054 15.2552C27.9238 15.2552 27.7255 15.2372 27.5099 15.1991C26.6768 15.0522 26.1016 14.984 25.7253 14.984C23.5319 14.9852 28.1088 17.2924 27.7533 19.5974Z" fill="white"/>
<path d="M33.4589 15.2726C33.541 14.776 33.5453 14.2697 33.4716 13.7718C33.2646 12.3849 32.1807 11.2564 31.0557 11.2559C30.6712 11.2559 29.7509 11.416 29.3156 12.7821C29.0228 12.6598 28.7273 12.5441 28.4293 12.4352C28.6866 10.7038 28.59 9.5169 28.1281 8.91046C28.0167 8.75873 27.871 8.63545 27.703 8.55067C27.5349 8.46588 27.3492 8.42198 27.1609 8.42253C26.5562 8.42253 25.8769 8.82721 25.0329 9.69265L25.0023 9.61056C24.823 9.1261 24.5236 8.31558 23.72 8.31558C23.1708 8.31558 22.4435 8.65436 20.915 10.8824C20.4717 10.8498 20.0278 10.8261 19.5836 10.8113L19.5015 10.513C19.0246 8.76189 18.4834 6.7778 16.959 6.77722H16.9584C16.3369 6.77722 15.6831 7.14317 14.9587 7.89529C14.4193 8.45606 13.8857 8.72836 13.3267 8.72836C12.6451 8.72836 11.9473 8.33755 11.2721 7.96004C10.5893 7.57849 9.884 7.18364 9.15442 7.18364C8.28956 7.18364 7.58658 7.71377 7.00499 8.80467C6.34074 10.0511 6.71016 10.8743 7.06743 11.671C7.22352 12.0184 7.38713 12.3867 7.50333 12.8387C3.6317 14.5014 1.15564 17.0191 1.15564 19.842C1.15564 27.6656 8.92086 36.8403 18.4991 36.8403C28.0778 36.8403 35.8425 27.6656 35.8425 19.842C35.8425 18.1736 34.9649 16.615 33.4589 15.2726ZM18.4991 35.6615C11.2085 35.6615 5.07814 29.9405 3.03913 23.9495C5.906 26.8915 11.7502 28.9074 18.4991 28.9074C25.2479 28.9074 31.0909 26.8915 33.9578 23.9501C31.9188 29.9399 25.7891 35.6615 18.4991 35.6615ZM24.9363 25.5526C24.797 25.9908 24.364 26.6568 23.8269 27.1257C22.9979 27.8489 21.9874 28.0044 21.5058 27.4991C21.1011 27.0725 21.1676 26.2799 21.6324 25.5382C22.584 24.0189 23.9483 23.6859 24.5403 23.9865C24.5288 24.0281 24.5126 24.068 24.5045 24.1125C24.4224 24.5745 24.571 25.0589 24.9363 25.5526ZM33.8208 18.125C33.2548 18.125 32.9825 19.6929 32.9421 20.6785C32.9062 21.5475 32.6553 21.8371 32.2963 21.8371C31.7795 21.8371 31.0383 21.2382 30.3914 20.8994C30.1845 20.7907 30.0255 20.7427 29.9006 20.7427C29.53 20.7427 29.4624 21.1757 29.3352 21.7885C29.1207 22.8228 28.8652 23.8957 28.3044 24.7878C27.8928 25.4428 27.2563 25.8983 26.6187 25.8983C26.1995 25.8983 25.7798 25.7018 25.4225 25.2364C24.0177 23.4107 27.1037 23.0372 27.7188 21.7856C28.0749 21.0618 27.961 20.8098 27.635 20.8098C26.9933 20.8098 25.5301 21.7891 25.2283 22.066C24.6953 22.5534 24.083 23.2714 23.3338 23.2714C23.2072 23.2714 23.076 23.2506 22.9407 23.2049C22.1458 22.9367 22.0342 21.9365 22.2024 21.1936C22.3423 20.5728 22.6644 20.0149 21.8342 19.9831C21.8049 19.9819 21.7756 19.9813 21.7463 19.9813C21.2116 19.9813 20.6652 20.1571 20.1802 20.3768C19.5917 20.6439 18.7777 21.1214 18.5644 21.8226C18.4979 22.0383 19.9253 22.2632 20.1473 22.3487C21.2595 22.7835 21.8035 24.8768 20.6398 24.8768C20.4895 24.8768 20.3109 24.8415 20.101 24.7652C19.3714 24.4929 18.6378 24.1079 17.8741 24.1079C17.6232 24.1079 17.3694 24.1495 17.1122 24.2507C16.5791 24.46 16.2878 25.0572 15.8681 25.4312C15.2472 25.9885 14.698 26.288 14.2667 26.288C13.6724 26.288 13.3024 25.7191 13.2787 24.4698C13.2579 23.4546 13.063 23.1257 12.748 23.1257C12.186 23.1257 11.2426 24.175 10.2291 24.2524C10.1996 24.2542 10.1713 24.2553 10.1442 24.2553C8.79194 24.2553 9.31803 21.6845 9.42324 20.8919C9.53829 20.0276 9.01683 19.7206 8.21383 19.7206C7.31139 19.7206 6.05631 20.1079 4.95096 20.5282C5.00414 20.5756 5.05964 20.6173 5.11052 20.6693C6.12221 21.6787 6.45463 23.0101 5.85513 23.6408C5.25447 24.2704 3.94851 23.9622 2.93796 22.9517C1.92742 21.9411 1.59385 20.6097 2.19451 19.9796C2.7073 19.4379 3.50452 19.62 4.18264 19.9813C5.06889 19.6836 5.96786 19.424 5.94705 19.0055C5.78922 15.8397 6.68703 15.2489 7.38019 15.2495C7.64441 15.2561 7.90286 15.3282 8.13232 15.4593C8.75783 11.4305 6.41127 11.157 7.51373 9.08794C8.03577 8.1092 8.58093 7.77505 9.15558 7.77505C10.391 7.77505 11.7617 9.31919 13.3278 9.31919C13.9747 9.31919 14.6552 9.05499 15.3726 8.3098C16.0161 7.6415 16.534 7.36805 16.9601 7.36805C18.8662 7.36863 18.917 12.8428 20.0068 12.8428C20.216 12.8428 20.4641 12.641 20.7699 12.16C22.3684 9.64987 23.2188 8.90584 23.7206 8.90584C24.4525 8.90584 24.4426 10.4887 24.9265 10.4887C25.026 10.4887 25.1474 10.4211 25.3 10.2586C26.103 9.40359 26.721 9.01221 27.1615 9.01221C28.2004 9.01221 28.2518 11.1865 27.4055 14.5737C27.4055 14.5737 27.5945 14.6216 27.8714 14.6216C28.4617 14.6216 29.4485 14.4049 29.8347 13.0498C30.0781 12.1965 30.5516 11.8461 31.0568 11.8461C31.8546 11.8461 32.7305 12.7191 32.901 13.8608C33.2115 15.9461 31.8361 17.4232 31.9437 18.0522C31.9622 18.1637 32.0171 18.2077 32.0992 18.2077C32.4073 18.2077 33.0993 17.5804 33.7034 17.5804C34.1538 17.5804 34.5562 17.9302 34.7111 19.1523C34.3573 18.4118 34.0624 18.125 33.8208 18.125Z" fill="white"/>
</svg>
