<svg width="37" height="27" viewBox="0 0 37 27" fill="none" xmlns="http://www.w3.org/2000/svg">
<path d="M0.830268 0.429735C0.696181 0.499693 0.646627 0.555077 0.594159 0.69208C0.50671 0.925274 0.588329 1.16138 0.792374 1.26632C0.850673 1.29839 2.47429 1.60737 4.95199 2.05918C7.18483 2.46728 9.01832 2.80541 9.02707 2.81124C9.0329 2.81998 8.9746 2.922 8.89589 3.04152C8.82011 3.16103 8.73849 3.30386 8.71517 3.35925C8.69476 3.41463 8.67436 3.46127 8.67144 3.4671C8.66853 3.47001 7.17317 3.22516 5.35133 2.91909C3.36335 2.58679 2.00499 2.374 1.95835 2.38274C1.60564 2.46728 1.46572 2.87537 1.696 3.14062C1.74556 3.19601 1.80969 3.25431 1.83592 3.26888C1.89422 3.30095 1.88839 3.29803 4.37191 3.64782C5.40672 3.79357 6.75925 3.98304 7.37721 4.07049C7.99518 4.15794 8.51112 4.23081 8.51987 4.23081C8.53444 4.23081 8.56651 4.45235 8.63064 5.01784C8.68893 5.53087 8.74723 5.70577 9.01832 6.1809C9.15241 6.4141 9.28358 6.65312 9.31273 6.70851C9.34188 6.76389 9.44682 6.92713 9.55175 7.06996C9.65378 7.20988 9.73248 7.3323 9.72665 7.34105C9.71791 7.34688 9.07954 7.25652 8.30416 7.137C7.27519 6.97668 6.8875 6.92713 6.87001 6.95336C6.85835 6.97085 6.09464 8.27091 5.17935 9.84206C4.26115 11.4132 2.73955 14.0192 1.79511 15.634C0.567924 17.7357 0.0694702 18.5636 0.0403208 18.5519C0.0170013 18.5431 -0.000488281 18.5431 -0.000488281 18.549C-0.000488281 18.5956 0.145258 19.6596 0.151088 19.6654C0.162748 19.6741 1.02265 19.8636 3.01647 20.295C3.85014 20.4728 4.87328 20.6944 5.29012 20.7847L6.048 20.948L6.12671 21.5455C6.17334 21.872 6.21707 22.1489 6.23164 22.1606C6.25788 22.1839 8.26627 22.5162 8.36538 22.5133C8.40619 22.5133 8.61606 22.49 8.83177 22.4666C9.64212 22.3734 10.0181 22.3559 10.4612 22.3909C11.2978 22.455 11.3182 22.455 14.0786 22.8573C14.9677 22.9855 15.8334 23.1109 16.0025 23.1371C16.877 23.2624 17.9439 23.4227 18.4365 23.5015C19.7715 23.7142 20.6314 23.86 20.8442 23.9095L20.9783 23.9387L21.0045 24.2506L21.0308 24.5596L21.1182 24.2885C21.1678 24.1398 21.2232 24.0116 21.2436 24.0028C21.3106 23.9737 22.8147 24.2914 24.0069 24.5829L24.622 24.7316L24.6103 25.0114L24.6016 25.2912L24.7211 25.0493C24.7881 24.9181 24.8552 24.8103 24.8697 24.8103C24.9659 24.8103 26.505 25.2737 26.8111 25.3962C27.1667 25.539 27.8809 25.8655 28.426 26.1395L28.9302 26.3931L30.3877 26.6933C31.1893 26.8595 31.8539 26.9965 31.8656 26.9965C31.8802 26.9965 31.8889 26.6991 31.8889 26.3377V25.6789L32.0288 25.6964C32.1046 25.7051 33.1365 25.8072 34.3229 25.9179C35.5093 26.0287 36.5266 26.1278 36.582 26.1366L36.6869 26.1511L36.8268 25.676C36.9055 25.4166 36.9755 25.1892 36.9813 25.1717C36.9871 25.1542 36.9638 25.1309 36.9317 25.1222L36.8676 25.1047L36.888 23.7988C36.9084 22.2597 36.9521 17.6862 36.9813 14.0687L36.9988 11.5036L36.375 11.4103C36.031 11.3578 34.9642 11.1975 34.0022 11.0518L32.2533 10.7836L32.0959 10.6291C31.8015 10.3347 31.6324 10.3055 31.201 10.4775L30.9357 10.5825L24.5258 9.60595C20.9987 9.0696 18.008 8.61487 17.8768 8.59739C17.7427 8.57698 17.6349 8.55366 17.6349 8.542C17.6349 8.51285 17.8389 8.25634 18.2383 7.78412C18.728 7.20696 18.9145 6.95336 19.1011 6.6094C19.1914 6.44616 19.3314 6.19548 19.4188 6.04973L19.5733 5.78739L22.7214 6.23337C24.4529 6.47823 25.8987 6.67061 25.9366 6.66187C26.0328 6.64146 26.0794 6.52487 26.0241 6.43742C25.9716 6.35872 26.3126 6.42284 22.7214 5.81945C21.3281 5.58626 20.0834 5.37638 19.9581 5.35598C19.8356 5.33557 19.7249 5.31225 19.7161 5.30351C19.7103 5.29476 19.7161 5.16651 19.7365 5.02076C19.7657 4.79922 19.7773 4.7555 19.8182 4.76716C19.996 4.82254 24.7065 5.65622 24.7502 5.64456C24.8727 5.60375 24.8901 5.42885 24.7794 5.36764C24.7502 5.35306 23.66 5.11695 22.3542 4.84586C21.0483 4.57186 19.9522 4.34158 19.9202 4.33283C19.8648 4.32117 19.8561 4.29494 19.8415 4.05009C19.8094 3.49916 19.5995 3.07941 19.1069 2.58096C18.5764 2.04461 17.9672 1.69482 17.0402 1.38875C15.0406 0.729973 12.6503 0.811592 10.7556 1.60445C10.4845 1.71814 10.0968 1.92801 9.8724 2.07959L9.70625 2.19327L8.29833 1.89886C4.62551 1.12932 2.68417 0.721228 1.91462 0.560907C1.45406 0.4618 1.04014 0.383097 0.99642 0.383097C0.952696 0.383097 0.879822 0.4035 0.830268 0.429735Z" fill="white"/>
</svg>
