<svg width="37" height="37" viewBox="0 0 37 37" fill="none" xmlns="http://www.w3.org/2000/svg">
<path d="M10.3206 18.4178C9.3332 17.9374 8.3689 17.8593 8.1683 18.2426C7.96885 18.6288 8.60766 19.3295 9.59624 19.8099C10.5837 20.292 11.5468 20.3712 11.7486 19.9851C11.9474 19.6029 11.3098 18.8988 10.3206 18.4178Z" fill="white"/>
<path d="M15.1251 16.9994C13.5926 16.9994 12.1889 17.6821 11.9611 18.6424C11.6952 19.7634 13.0937 20.8225 15.1251 20.8225C17.1584 20.8225 18.5557 19.7639 18.2897 18.6424C18.062 17.6821 16.6577 16.9994 15.1251 16.9994Z" fill="white"/>
<path d="M28.5133 16.9994C26.9818 16.9994 25.5776 17.6821 25.3498 18.6435C25.0839 19.7639 26.4812 20.8225 28.5133 20.8225C30.5465 20.8225 31.9438 19.7645 31.6784 18.6435C31.4495 17.6821 30.0458 16.9994 28.5133 16.9994Z" fill="white"/>
<path d="M35.8271 11.898C35.8052 11.4446 35.6853 11.0015 35.4756 10.5989C34.461 8.65416 31.4514 7.4488 28.514 7.4488C26.1986 7.4488 23.8445 8.19977 22.453 9.46873V7.4488H22.4386C22.4166 6.99566 22.2967 6.55267 22.0871 6.15035C21.0731 4.205 18.0634 2.99963 15.1254 2.99963C12.188 2.99963 9.17663 4.205 8.16493 6.14978C7.95475 6.55188 7.8348 6.995 7.81344 7.44822H7.79783V12.379C7.25036 12.5356 6.58032 12.7669 5.67037 13.0941C4.48871 13.5207 1.22872 17.5837 1.22872 17.5837C3.41746 17.4571 5.63106 17.8323 7.73655 18.4671C8.28634 18.6295 8.82918 18.8128 9.36567 19.0088C9.8802 17.1646 11.3157 15.1793 10.2565 13.5213C12.0348 15.1556 10.3346 17.6132 10.7699 19.5643C11.7992 20.0024 12.8102 20.4823 13.8004 21.0027C14.1079 21.164 14.4103 21.3322 14.7138 21.4975C15.8301 19.6181 16.6933 17.4646 16.1498 15.2649C17.2529 17.4513 16.7933 19.9973 16.0429 22.2456C17.18 22.9029 18.2975 23.5811 19.4052 24.2575C19.5428 24.3401 19.6815 24.4211 19.8197 24.5037C20.3128 22.7729 21.2945 21.0507 21.6702 19.3053C21.7627 21.2183 21.0626 23.4429 21.2448 25.3304C21.5535 25.5056 21.861 25.6825 22.1755 25.8467C23.1126 26.345 24.0769 26.7821 25.1383 27.0469C24.0399 27.1654 22.9219 26.9283 21.8604 26.6318C20.8002 26.3109 19.7735 25.9051 18.7808 25.4513C16.7863 24.5563 14.8942 23.5232 12.9991 22.5381C11.1058 21.5473 9.21536 20.5916 7.27406 19.7378C5.30969 18.8839 3.28977 18.1641 1.22815 17.5831C1.20387 18.093 1.34319 18.6619 1.59583 19.2163C1.20329 19.891 0.85295 21.0738 1.56923 22.0889C1.62647 22.1693 1.68196 22.2445 1.73573 22.3156L1.82071 22.4306C1.63225 23.1989 1.99993 23.8516 2.22539 24.2511C2.28725 24.3604 2.3809 24.5269 2.39767 24.5893C2.42253 24.7379 2.41444 24.8783 2.40345 25.0558C2.35489 25.8802 2.49132 26.7254 3.80827 27.3203C4.1297 27.4648 5.25182 27.8764 6.17969 27.8764C6.31728 27.8764 6.4462 27.8672 6.56703 27.8504C7.04686 28.4378 7.65619 28.9292 8.30252 29.2304C9.08009 29.5917 9.90043 29.727 10.6242 29.8467L10.6791 29.8559C11.1335 30.4334 11.692 30.5647 12.0256 30.6427C12.2158 30.6872 12.2713 30.7034 12.3354 30.7508C12.7742 31.0734 13.938 31.8221 15.263 31.8221C15.5651 31.8223 15.8656 31.7795 16.1556 31.6949C16.2244 31.825 16.3036 31.9296 16.3788 32.0117C16.865 32.543 17.5275 32.5534 17.9229 32.5597C18.0143 32.5609 18.1524 32.5632 18.1993 32.5736C18.6219 32.7072 19.3121 32.7447 20.3967 32.7898L20.7522 32.8049C20.821 33.4483 21.1968 33.8067 21.5523 34.0027C21.8073 34.1444 22.0848 34.2166 22.375 34.2166C22.9652 34.2166 23.4607 33.9229 23.881 33.524C24.145 33.7306 24.4713 33.8416 24.8065 33.8391C24.9678 33.8391 25.132 33.8148 25.2962 33.7657C26.3801 33.4385 26.7293 32.5083 26.9392 31.9527C26.9814 31.84 27.0421 31.6793 27.0866 31.5943C28.4272 31.037 29.2539 30.0958 29.5465 28.7945C29.6077 28.5216 29.6471 28.2441 29.6632 27.962C29.8926 27.7063 30.0601 27.4013 30.1529 27.0706C30.283 26.6289 30.3194 26.0878 30.2015 25.5969C30.3159 25.3158 30.3695 25.0136 30.3585 24.7102C30.3475 24.4069 30.2723 24.1093 30.1379 23.8372C29.9448 23.4377 29.6089 23.0058 28.9331 22.563C28.9551 22.4248 28.9632 22.2861 28.9753 22.1479C33.3175 22.0034 35.8652 19.854 35.8311 17.6057H35.8421V11.8968H35.8271V11.898ZM15.1254 11.3568C10.2687 11.3568 7.63769 8.59866 8.79739 6.14978C9.64606 4.35762 12.3956 3.22279 15.1254 3.22279C17.8559 3.22279 20.6042 4.35762 21.4523 6.14978C22.612 8.59866 19.981 11.3568 15.1254 11.3568ZM28.9186 25.5432C29.2609 25.8929 29.1794 27.2099 28.5082 27.3613C28.5358 27.7572 28.506 28.1551 28.4197 28.5424C28.1896 29.568 27.5364 30.175 26.5744 30.5566C25.7222 30.8925 25.9818 32.3522 24.9643 32.6598C24.9065 32.6771 24.8545 32.6852 24.8065 32.6852C24.1862 32.6852 24.3278 31.3336 24.3932 31.0035C24.0388 31.3353 23.1693 33.0627 22.375 33.0627C22.2822 33.0628 22.191 33.0389 22.1102 32.9933C21.6263 32.7257 22.0946 32.099 21.9535 31.8394C22.7606 31.1335 23.1652 30.3005 22.8571 29.9802C22.7588 29.8779 22.5952 29.8478 22.3975 29.8669C22.5386 29.5882 22.5698 29.3443 22.4449 29.1917C22.1657 28.8488 21.2355 29.0928 20.3712 29.7345C19.5058 30.3774 19.034 31.1752 19.3133 31.518C19.3358 31.5452 19.3676 31.5637 19.3977 31.5833C19.0242 31.5579 18.7057 31.5232 18.5357 31.47C18.0339 31.3116 17.3344 31.5527 17.1569 31.0913C17.2795 31.0561 17.3743 30.9983 17.4257 30.9104C17.6443 30.5352 17.0384 29.8073 16.0712 29.2853C15.1052 28.7621 14.1461 28.6448 13.9276 29.0205C13.7102 29.3946 14.3149 30.1224 15.2821 30.6456C15.2942 30.6525 15.3064 30.6572 15.3185 30.6635C15.2994 30.6641 15.2815 30.6682 15.2624 30.6682C14.475 30.6682 13.6102 30.256 13.017 29.8206C12.5829 29.5015 12.1961 29.5507 11.8689 29.3772C12.0377 29.342 12.1655 29.2737 12.2233 29.1627C12.4239 28.7789 11.7874 28.0759 10.7982 27.5955C9.81024 27.1145 8.84537 27.0364 8.64592 27.4203C8.53377 27.6348 8.69102 27.9493 9.01765 28.2684C8.9425 28.2389 8.86272 28.2181 8.78929 28.184C8.47832 28.0356 8.1902 27.8435 7.93369 27.6134C8.17707 27.5943 8.35513 27.5169 8.42855 27.3752C8.62916 26.9914 7.9915 26.2884 7.00177 25.808C6.01435 25.3258 5.05006 25.2489 4.85061 25.6328C4.72284 25.8779 4.93674 26.2502 5.36281 26.6133C4.99349 26.5289 4.63202 26.4132 4.28232 26.2676C3.17119 25.7658 3.69322 25.3379 3.53308 24.3881C3.43423 23.7984 2.76535 23.2267 2.95613 22.6549C3.12956 22.1346 2.83183 21.8762 2.51098 21.4224C2.278 21.0923 2.28147 20.7223 2.35431 20.4066C2.66245 20.772 3.01452 21.1004 3.40648 21.3495C3.54869 21.4391 3.91811 21.612 4.4465 21.8409C4.25804 22.1947 4.15514 22.7682 4.19503 23.4134C4.26035 24.4662 4.67717 25.305 5.13041 25.2848C5.58019 25.2645 5.89468 24.3962 5.82877 23.3423C5.80992 23.0018 5.74676 22.6652 5.64089 22.341C6.23866 22.585 6.9295 22.8602 7.6903 23.1573C7.67816 23.1729 7.66429 23.1874 7.65215 23.2036C7.0087 24.0522 6.7844 24.9471 7.15092 25.2044C7.51802 25.4611 8.33721 24.9818 8.98123 24.1332C9.0772 24.0065 9.16044 23.8799 9.23675 23.7533C10.7531 24.3314 12.432 24.9535 14.1241 25.5571C13.3367 25.6374 12.7621 25.908 12.7546 26.2508C12.7459 26.6832 13.6327 27.0607 14.7346 27.096C15.7625 27.1289 16.6037 26.852 16.7222 26.4641C17.0182 26.5653 17.3118 26.6647 17.6015 26.7618C16.8892 26.859 16.3857 27.1197 16.3799 27.4417C16.3741 27.7394 16.7967 28.0077 17.4165 28.1603C17.1164 28.6124 17.0228 29.0234 17.2182 29.2263C17.5257 29.5483 18.4293 29.2344 19.2375 28.5257C19.2612 28.5043 19.2815 28.4829 19.3046 28.4615C19.3157 28.5081 19.3361 28.552 19.3647 28.5904C19.6463 28.9338 20.5736 28.6898 21.4378 28.0481C21.4633 28.0296 21.4847 28.0094 21.5095 27.9903C22.6022 28.3037 23.5381 28.5361 24.2215 28.65L24.1949 28.7014C23.9232 29.2836 23.7249 30.7439 24.1347 30.7624C24.5839 30.7838 25.2436 30.3138 25.6904 29.3553C25.9061 28.8933 26.0217 28.4418 26.0402 28.0753C26.3278 27.7739 26.5973 27.4558 26.8473 27.1226C26.8865 27.1982 26.9486 27.2595 27.0247 27.2978C27.4375 27.4793 28.1347 26.8486 28.5799 25.8906C29.0267 24.9315 29.0551 24.0083 28.64 23.8279C28.6354 23.8256 28.629 23.8268 28.625 23.825L28.6388 23.7863C29.2482 24.3072 29.3973 24.8905 28.9186 25.5432ZM28.5134 15.8072C23.6578 15.8072 21.0257 13.0484 22.1865 10.5984C23.0352 8.80679 25.7847 7.67137 28.5134 7.67137C31.2438 7.67137 33.9933 8.80679 34.8414 10.5984C36.0011 13.0484 33.3701 15.8072 28.5134 15.8072Z" fill="white"/>
</svg>
