<svg width="49" height="49" viewBox="0 0 49 49" fill="none" xmlns="http://www.w3.org/2000/svg">
<g clip-path="url(#clip0_0_199)">
<path fill-rule="evenodd" clip-rule="evenodd" d="M36.2874 10.1081H34.7768V7.06316C34.7768 5.3712 33.5176 3.99722 31.9675 3.99722H20.8373C19.2872 3.99722 18.0308 5.3712 18.0308 7.06316V10.1081H16.4977C6.10162 10.1081 3.80896 45.4744 3.80896 45.4744C3.80896 47.2144 5.26023 48.6363 7.04748 48.6363H45.7404C47.5305 48.6363 48.9817 47.2144 48.9817 45.4744C48.9817 45.4744 46.4886 10.1081 36.2874 10.1081ZM20.6284 34.0476V27.7988H32.0409V34.0476H20.6284ZM32.1538 36.9966V42.9965H20.7131V36.9966H32.1538ZM32.1284 18.7479V25.0598H20.6284V18.7479H32.1284ZM42.4651 25.0598H34.6865V18.7479H40.6864C41.395 20.6649 41.9823 22.8459 42.4651 25.0598ZM18.011 25.0598H10.2578C10.7236 22.8729 11.294 20.6409 11.9942 18.7479H18.011V25.0598ZM17.9828 27.7988V34.0476H8.74722C8.99004 32.1997 9.30062 29.9677 9.72414 27.7988H17.9828ZM34.8051 27.7058H43.0524C43.4844 29.8987 43.8176 32.1727 44.0661 34.0446H34.8051V27.7058ZM20.682 7.55215C20.682 7.04216 21.0999 6.62517 21.6138 6.62517H31.1938C31.7077 6.62517 32.1256 7.04216 32.1256 7.55215V10.1111H20.682V7.55215ZM8.08935 40.6745C8.08935 40.6745 8.19099 39.3245 8.46487 36.9966H17.9828V42.9965H10.4837C9.15944 42.9965 8.08935 41.9495 8.08935 40.6745ZM42.2873 42.9965H34.8079V36.9966H44.3004C44.5827 39.3005 44.6985 40.6955 44.6985 40.6955C44.6957 41.9615 43.6115 42.9965 42.2873 42.9965Z" fill="#EB1C23"/>
</g>
<defs>
<clipPath id="clip0_0_199">
<rect width="47.9991" height="47.9991" fill="white" transform="translate(0.982788 0.997253)"/>
</clipPath>
</defs>
</svg>
