<svg width="52" height="52" viewBox="0 0 52 52" fill="none" xmlns="http://www.w3.org/2000/svg">
<path d="M25.9995 50.0003C39.2545 50.0003 49.9991 39.2557 49.9991 26.0008C49.9991 12.7458 39.2545 2.00125 25.9995 2.00125C12.7446 2.00125 2 12.7458 2 26.0008C2 39.2557 12.7446 50.0003 25.9995 50.0003Z" stroke="#EB1C23" stroke-width="3.99992" stroke-linecap="round" stroke-linejoin="round"/>
<path d="M2 26.0008H49.9991" stroke="#EB1C23" stroke-width="3.99992" stroke-linecap="round" stroke-linejoin="round"/>
<path d="M25.9995 50.0003C31.301 50.0003 35.5993 39.2557 35.5993 26.0008C35.5993 12.7458 31.301 2.00122 25.9995 2.00122C20.698 2.00122 16.3997 12.7458 16.3997 26.0008C16.3997 39.2557 20.698 50.0003 25.9995 50.0003Z" stroke="#EB1C23" stroke-width="3.99992" stroke-linecap="round" stroke-linejoin="round"/>
<path d="M42.9699 42.63C40.7439 40.3981 38.0987 38.6281 35.1864 37.4217C32.2741 36.2154 29.1521 35.5965 25.9999 35.6005C22.8476 35.5965 19.7256 36.2154 16.8133 37.4217C13.901 38.6281 11.2558 40.3981 9.02979 42.63M9.02979 9.37146C11.2558 11.6034 13.901 13.3734 16.8133 14.5797C19.7256 15.7861 22.8476 16.405 25.9999 16.4009V16.4009C29.1521 16.405 32.2741 15.7861 35.1864 14.5797C38.0987 13.3734 40.7439 11.6034 42.9699 9.37146H9.02979Z" stroke="#EB1C23" stroke-width="3.99992" stroke-linecap="round" stroke-linejoin="round"/>
</svg>
