<svg width="49" height="49" viewBox="0 0 49 49" fill="none" xmlns="http://www.w3.org/2000/svg">
<path d="M24.9623 4.99367C13.9225 4.99367 4.98267 13.9535 4.98267 24.9933C4.98267 36.0331 13.9225 44.9929 24.9623 44.9929C36.0221 44.9929 44.9819 36.0331 44.9819 24.9933C44.9819 13.9535 36.0221 4.99367 24.9623 4.99367ZM24.9823 40.993C16.1424 40.993 8.98259 33.8331 8.98259 24.9933C8.98259 16.1534 16.1424 8.99359 24.9823 8.99359C33.8221 8.99359 40.982 16.1534 40.982 24.9933C40.982 33.8331 33.8221 40.993 24.9823 40.993ZM25.9823 14.9935H22.9823V26.9932L33.4821 33.2931L34.9821 30.8332L25.9823 25.4933V14.9935Z" fill="#EB1C23"/>
</svg>
