<svg width="62" height="62" viewBox="0 0 62 62" fill="none" xmlns="http://www.w3.org/2000/svg">
<rect x="-0.00012207" y="-0.000244141" width="62" height="62" rx="31" fill="#EB1C23"/>
<path d="M25.8426 18.4429L20.8933 27.3749H18.9999C18.795 27.3751 18.5929 27.424 18.4092 27.5178C18.2256 27.6116 18.0653 27.7477 17.9409 27.9156C17.8165 28.0836 17.7312 28.2788 17.6917 28.4862C17.6523 28.6935 17.6596 28.9075 17.7133 29.1115L21.4453 43.2231C21.6 43.8048 21.9355 44.3181 22.4003 44.6843C22.8652 45.0504 23.4337 45.2491 24.0186 45.2499H37.9826C39.1799 45.2499 40.2386 44.418 40.5559 43.2217L44.2879 29.1101C44.3422 28.9061 44.35 28.6918 44.3107 28.4842C44.2714 28.2765 44.186 28.081 44.0613 27.913C43.9366 27.745 43.7759 27.609 43.5918 27.5157C43.4077 27.4223 43.2051 27.3741 42.9999 27.3749H41.1066L36.1573 18.4429L33.8426 19.8069L38.0359 27.3749H23.9639L28.1573 19.8069L25.8426 18.4429ZM33.6666 32.8749H36.3333V39.7499H33.6666V32.8749ZM25.6666 32.8749H28.3333V39.7499H25.6666V32.8749Z" fill="white"/>
</svg>
