<?xml version="1.0" standalone="no"?>
<!DOCTYPE svg PUBLIC "-//W3C//DTD SVG 20010904//EN"
 "http://www.w3.org/TR/2001/REC-SVG-20010904/DTD/svg10.dtd">
<svg version="1.0" xmlns="http://www.w3.org/2000/svg"
 width="66.000000pt" height="62.000000pt" viewBox="0 0 66.000000 62.000000"
 preserveAspectRatio="xMidYMid meet">

<g transform="translate(0.000000,62.000000) scale(0.100000,-0.100000)"
fill="#000000" stroke="none">
<path d="M64 588 c-4 -6 -2 -14 4 -16 7 -2 12 -10 12 -18 0 -9 -4 -12 -10 -9
-5 3 -10 -1 -10 -10 0 -8 7 -18 15 -21 8 -4 15 -10 15 -16 0 -5 -4 -6 -10 -3
-6 4 -10 -6 -10 -22 0 -21 3 -24 10 -13 7 12 10 12 16 -4 7 -18 8 -17 17 5 9
21 11 22 15 5 4 -20 -16 -38 -35 -31 -24 8 -21 -70 3 -96 15 -16 14 -17 -5
-12 -12 3 -21 13 -21 24 0 11 -4 19 -10 19 -5 0 -7 -6 -4 -14 3 -7 -1 -20 -8
-27 -17 -19 -21 -39 -6 -39 6 0 8 -3 5 -6 -4 -4 -13 -2 -20 4 -11 10 -14 4
-15 -30 -3 -74 23 -132 80 -178 58 -46 80 -53 143 -48 29 2 46 -1 50 -9 2 -7
13 -13 24 -13 14 0 18 5 14 20 -3 11 -2 36 2 57 5 27 9 33 16 22 7 -12 9 -12
9 1 0 22 40 23 41 2 1 -11 4 -8 9 8 8 24 8 24 9 3 1 -29 34 -30 79 -3 45 28
47 25 11 -15 -17 -19 -34 -34 -38 -33 -3 0 -8 -1 -11 -2 -16 -6 -39 -7 -37 -2
1 4 -1 7 -4 7 -3 0 -13 6 -22 14 -15 12 -17 11 -17 -4 0 -14 -3 -15 -14 -6
-12 10 -15 7 -14 -18 1 -26 5 -31 25 -31 12 0 23 4 23 8 0 5 17 9 37 10 51 2
83 28 116 93 15 30 25 45 21 34 -22 -70 -23 -75 -8 -75 8 0 12 4 9 10 -3 5 0
8 7 5 7 -2 24 9 37 26 18 23 23 41 22 85 0 59 -13 86 -40 83 -31 -3 -34 1 -17
20 10 11 16 28 13 38 -4 14 -5 14 -6 -4 -1 -22 -10 -28 -40 -23 -10 1 -12 -6
-8 -29 4 -17 2 -33 -4 -37 -6 -4 -7 -10 0 -17 6 -8 5 -19 -5 -31 -8 -11 -14
-16 -14 -12 0 5 -7 3 -15 -4 -8 -6 -18 -9 -24 -6 -5 3 -11 0 -14 -6 -2 -7 -7
-10 -11 -7 -10 10 29 74 45 74 8 0 13 -8 13 -18 -2 -17 7 -22 19 -10 4 3 3 11
-2 17 -5 6 -10 16 -12 21 -1 6 -10 9 -21 7 -10 -2 -18 1 -18 7 0 18 -20 64
-26 58 -11 -11 -22 -77 -13 -83 5 -3 9 -15 8 -27 l0 -22 -9 23 c-7 15 -18 22
-36 22 -15 0 -25 -1 -23 -3 2 -1 13 -9 23 -17 18 -13 19 -13 11 0 -5 10 -5 12
3 5 6 -5 14 -23 18 -40 7 -27 6 -29 -9 -17 -13 11 -19 10 -34 -5 -17 -17 -21
-18 -33 -4 -13 13 -16 11 -24 -19 -14 -48 -32 -66 -39 -39 -3 12 -10 18 -15
15 -6 -3 -12 0 -15 6 -3 8 -9 3 -15 -12 -8 -19 -11 -20 -11 -7 -1 10 -5 15
-11 12 -5 -3 -10 1 -10 10 0 9 -5 13 -10 10 -11 -7 -64 27 -92 59 -12 13 -18
15 -18 6 0 -11 -3 -11 -11 -3 -9 9 -8 16 5 28 9 9 16 12 16 6 0 -16 72 -61
103 -63 15 -1 27 -7 27 -13 0 -5 5 -3 10 5 7 11 10 11 10 2 0 -7 4 -10 10 -7
5 3 10 3 10 -2 0 -4 11 -9 25 -9 20 -2 25 3 25 23 0 13 5 34 11 46 9 15 9 22
1 25 -7 2 -9 22 -6 55 4 38 3 48 -5 37 -5 -8 -8 -24 -5 -36 4 -14 0 -23 -10
-27 -11 -4 -13 -1 -9 10 4 11 3 14 -5 9 -24 -15 -22 23 2 49 23 25 29 36 28
55 0 3 6 11 14 18 9 8 14 9 14 2 0 -6 12 -2 26 9 33 26 44 26 45 4 0 -11 3
-13 6 -5 2 6 12 12 21 12 15 0 15 2 2 10 -12 8 -13 10 -1 10 8 0 23 -7 33 -17
10 -9 18 -11 18 -5 0 6 -6 13 -13 16 -6 2 -1 3 13 1 14 -1 24 -8 22 -15 -2 -8
3 -10 14 -6 9 3 23 1 30 -5 17 -14 18 -5 2 23 -23 39 -34 48 -47 35 -8 -8 -11
-7 -11 4 0 11 -9 14 -36 11 -26 -3 -35 -1 -30 7 4 6 12 9 17 6 5 -4 9 -1 9 5
0 7 8 9 20 5 13 -4 20 -2 20 7 0 10 3 9 10 -2 8 -13 10 -12 10 3 0 10 7 20 15
23 8 4 12 11 8 17 -3 6 -1 7 5 3 17 -10 15 -36 -3 -36 -8 0 -15 -7 -15 -16 0
-11 5 -14 16 -10 9 3 18 6 20 6 2 0 4 16 4 35 0 39 -15 45 -46 17 -24 -23 -54
-35 -54 -22 0 20 -28 9 -63 -25 -20 -19 -38 -31 -41 -26 -10 15 -39 6 -47 -15
-5 -14 -8 -8 -8 21 -1 38 -3 40 -33 41 -18 0 -40 2 -48 5 -9 2 -16 -4 -18 -18
-4 -30 -26 -29 -50 2 -11 14 -22 21 -24 15 -2 -6 -20 1 -40 15 -26 18 -39 22
-44 13z m119 -104 c3 -3 3 -12 0 -20 -4 -11 -9 -12 -19 -3 -8 6 -14 15 -14 20
0 10 24 12 33 3z m127 -30 c0 -31 -10 -30 -43 4 l-27 28 35 -4 c29 -3 35 -8
35 -28z m-87 19 c-7 -2 -13 -12 -13 -21 0 -12 -3 -13 -11 -5 -14 14 -3 33 19
32 11 0 12 -3 5 -6z m167 -3 c0 -5 -4 -10 -10 -10 -5 0 -10 5 -10 10 0 6 5 10
10 10 6 0 10 -4 10 -10z m-80 -72 c0 -19 -2 -20 -10 -8 -13 19 -13 30 0 30 6
0 10 -10 10 -22z m-201 -30 c1 -5 -3 -8 -7 -8 -4 0 -8 12 -9 28 -1 23 -1 24 7
7 5 -11 9 -23 9 -27z m166 32 c-3 -5 -11 -10 -16 -10 -6 0 -7 5 -4 10 3 6 11
10 16 10 6 0 7 -4 4 -10z m15 -32 c0 -5 -4 -7 -9 -4 -5 4 -11 2 -13 -3 -1 -5
-11 -4 -20 3 -15 11 -14 13 12 13 17 0 30 -4 30 -9z m-86 -34 c10 -26 7 -54
-6 -54 -6 0 -3 -7 8 -16 10 -8 13 -13 7 -9 -7 3 -13 1 -13 -4 0 -12 11 -14 34
-5 9 3 13 10 10 15 -7 12 7 11 26 -1 13 -8 12 -10 -3 -10 -10 0 -29 -11 -42
-24 -14 -14 -27 -21 -30 -16 -3 5 -13 7 -23 4 -15 -5 -15 -4 1 6 9 6 15 16 12
21 -4 5 -11 7 -16 4 -5 -3 -6 1 -3 9 3 9 1 16 -4 16 -7 0 -5 11 4 28 7 15 14
33 14 40 0 17 17 15 24 -4z m243 -36 c-3 -7 -5 -2 -5 12 0 14 2 19 5 13 2 -7
2 -19 0 -25z m127 -26 c2 -4 -4 -8 -15 -8 -10 0 -19 4 -19 8 0 4 6 8 14 8 8 0
17 -4 20 -8z m-537 -27 c0 -8 -4 -12 -9 -9 -5 3 -6 10 -3 15 9 13 12 11 12 -6z
m283 -6 c0 -18 -2 -19 -15 -9 -8 7 -15 16 -15 21 0 5 7 9 15 9 9 0 15 -9 15
-21z m-198 -64 c11 -14 36 -34 56 -45 22 -11 30 -19 20 -20 -10 0 -34 15 -54
32 -36 31 -37 32 -29 8 10 -34 25 -51 38 -43 6 3 7 1 3 -6 -6 -9 -11 -9 -22 0
-8 6 -14 8 -14 3 -1 -22 -20 24 -20 47 0 14 -5 30 -12 37 -9 9 -9 12 1 12 7 0
22 -11 33 -25z m468 -31 c0 -8 -5 -12 -10 -9 -6 4 -8 11 -5 16 9 14 15 11 15
-7z m-125 -3 c3 -5 1 -12 -5 -16 -5 -3 -10 1 -10 9 0 18 6 21 15 7z m-25 -16
c0 -8 -4 -15 -10 -15 -5 0 -10 7 -10 15 0 8 5 15 10 15 6 0 10 -7 10 -15z
m-243 -31 c-3 -3 -12 -4 -19 -1 -8 3 -5 6 6 6 11 1 17 -2 13 -5z"/>
<path d="M185 317 c-4 -10 -5 -21 -1 -24 10 -10 18 4 13 24 -4 17 -4 17 -12 0z"/>
<path d="M345 540 c3 -5 8 -10 11 -10 2 0 4 5 4 10 0 6 -5 10 -11 10 -5 0 -7
-4 -4 -10z"/>
<path d="M395 430 c3 -5 8 -10 11 -10 2 0 4 5 4 10 0 6 -5 10 -11 10 -5 0 -7
-4 -4 -10z"/>
<path d="M474 420 c0 -13 4 -16 10 -10 7 7 7 13 0 20 -6 6 -10 3 -10 -10z"/>
<path d="M518 406 c-3 -15 -1 -26 6 -27 6 -1 0 -5 -14 -9 l-25 -8 28 -1 c15
-1 27 4 27 10 0 5 5 7 12 3 7 -4 8 -3 4 5 -4 6 -12 8 -18 5 -7 -5 -9 -2 -6 8
4 8 3 20 -2 27 -5 9 -9 4 -12 -13z"/>
<path d="M345 400 c-3 -6 1 -7 9 -4 18 7 21 14 7 14 -6 0 -13 -4 -16 -10z"/>
</g>
</svg>
