<svg width="33" height="33" viewBox="0 0 33 33" fill="none" xmlns="http://www.w3.org/2000/svg">
<path d="M20.8855 22.0575L23.1955 19.7475C23.5067 19.4403 23.9003 19.2299 24.3287 19.1421C24.757 19.0542 25.2017 19.0926 25.6087 19.2525L28.424 20.3766C28.8352 20.5435 29.1879 20.8285 29.4375 21.1955C29.6871 21.5626 29.8224 21.9953 29.8265 22.4391V27.5954C29.8241 27.8973 29.7606 28.1956 29.6399 28.4724C29.5192 28.7491 29.3437 28.9986 29.124 29.2057C28.9043 29.4129 28.645 29.5734 28.3617 29.6777C28.0783 29.782 27.7768 29.8279 27.4752 29.8125C7.74742 28.5854 3.76679 11.8791 3.01398 5.48535C2.97903 5.17138 3.01096 4.85356 3.10766 4.55281C3.20437 4.25205 3.36366 3.97518 3.57505 3.74041C3.78644 3.50564 4.04514 3.31829 4.33414 3.19068C4.62314 3.06308 4.93588 2.9981 5.25179 3.00004H10.2327C10.6772 3.00136 11.1111 3.13562 11.4787 3.38555C11.8462 3.63549 12.1306 3.98967 12.2952 4.40254L13.4193 7.21785C13.5846 7.62321 13.6267 8.06827 13.5405 8.49744C13.4543 8.92662 13.2436 9.32088 12.9346 9.63098L10.6246 11.941C10.6246 11.941 11.9549 20.9438 20.8855 22.0575Z" fill="#EB1C23"/>
</svg>
