<svg width="21" height="21" viewBox="0 0 21 21" fill="none" xmlns="http://www.w3.org/2000/svg">
<path d="M20.9324 6.19825C20.9206 5.3165 20.7553 4.44352 20.4437 3.61836C20.1736 2.92234 19.761 2.29023 19.2323 1.76242C18.7036 1.2346 18.0705 0.822689 17.3733 0.552999C16.5574 0.247228 15.6954 0.081892 14.8241 0.0640316C13.7022 0.0139706 13.3466 0 10.4988 0C7.6511 0 7.2861 7.80663e-08 6.17242 0.0640316C5.3015 0.0820233 4.43993 0.247357 3.62439 0.552999C2.9271 0.822501 2.29384 1.23435 1.76512 1.76218C1.2364 2.29002 0.823871 2.92223 0.55392 3.61836C0.247026 4.4323 0.081774 5.29262 0.0653043 6.16216C0.0151599 7.28329 0 7.63838 0 10.4814C0 13.3244 -8.68848e-09 13.6876 0.0653043 14.8006C0.0827965 15.6714 0.247223 16.5306 0.55392 17.3467C0.824324 18.0426 1.23716 18.6746 1.76606 19.2022C2.29495 19.7298 2.92827 20.1415 3.62556 20.4109C4.43887 20.729 5.30058 20.9061 6.17359 20.9348C7.29659 20.9849 7.65227 21 10.5 21C13.3477 21 13.7127 21 14.8264 20.9348C15.6977 20.9177 16.5597 20.7527 17.3756 20.447C18.0726 20.177 18.7056 19.765 19.2343 19.2372C19.7629 18.7094 20.1756 18.0775 20.4461 17.3816C20.7528 16.5667 20.9172 15.7075 20.9347 14.8355C20.9848 13.7155 21 13.3605 21 10.5163C20.9977 7.6733 20.9977 7.3124 20.9324 6.19825V6.19825ZM10.4918 15.8577C7.5135 15.8577 5.10073 13.4489 5.10073 10.4756C5.10073 7.50216 7.5135 5.09341 10.4918 5.09341C11.9216 5.09341 13.2929 5.66046 14.3039 6.66981C15.315 7.67915 15.8829 9.04812 15.8829 10.4756C15.8829 11.903 15.315 13.272 14.3039 14.2813C13.2929 15.2906 11.9216 15.8577 10.4918 15.8577V15.8577ZM16.0975 6.14935C15.4013 6.14935 14.8404 5.5882 14.8404 4.89433C14.8404 4.7296 14.8729 4.56648 14.9361 4.41428C14.9992 4.26209 15.0918 4.1238 15.2084 4.00732C15.3251 3.89083 15.4636 3.79843 15.6161 3.73539C15.7685 3.67235 15.9319 3.6399 16.0969 3.6399C16.2619 3.6399 16.4253 3.67235 16.5778 3.73539C16.7302 3.79843 16.8687 3.89083 16.9854 4.00732C17.1021 4.1238 17.1947 4.26209 17.2578 4.41428C17.321 4.56648 17.3535 4.7296 17.3535 4.89433C17.3535 5.5882 16.7914 6.14935 16.0975 6.14935Z" fill="white"/>
<path d="M10.5009 13.9999C12.4339 13.9999 14.0009 12.4329 14.0009 10.4999C14.0009 8.56693 12.4339 6.99992 10.5009 6.99992C8.56786 6.99992 7.00085 8.56693 7.00085 10.4999C7.00085 12.4329 8.56786 13.9999 10.5009 13.9999Z" fill="white"/>
</svg>
