<svg width="19" height="19" viewBox="0 0 19 19" fill="none" xmlns="http://www.w3.org/2000/svg">
<path d="M12.9712 13.7898L14.5211 12.2393C14.7299 12.033 14.994 11.8918 15.2814 11.8329C15.5688 11.7739 15.8672 11.7996 16.1403 11.907L18.0293 12.6615C18.3052 12.7736 18.5418 12.9649 18.7093 13.2112C18.8767 13.4576 18.9676 13.748 18.9703 14.046V17.5071C18.9687 17.7097 18.9261 17.91 18.8451 18.0957C18.7641 18.2815 18.6463 18.449 18.499 18.588C18.3516 18.7271 18.1776 18.8348 17.9874 18.9048C17.7973 18.9748 17.595 19.0056 17.3927 18.9953C4.15586 18.1716 1.48497 6.95765 0.979857 2.66589C0.956409 2.45514 0.977833 2.24181 1.04272 2.03993C1.1076 1.83805 1.21448 1.6522 1.35632 1.49462C1.49816 1.33703 1.67174 1.21127 1.86565 1.12561C2.05956 1.03996 2.2694 0.996347 2.48137 0.997648H5.82343C6.12167 0.998531 6.41282 1.08865 6.65943 1.25642C6.90605 1.42419 7.09686 1.66193 7.20731 1.93907L7.96153 3.82882C8.07241 4.10091 8.1007 4.39966 8.04287 4.68774C7.98503 4.97582 7.84362 5.24046 7.63632 5.44861L6.08637 6.99918C6.08637 6.99918 6.97897 13.0423 12.9712 13.7898Z" fill="white"/>
</svg>
